<?xml version="1.0" encoding="UTF-8"?>
<svg xmlns="http://www.w3.org/2000/svg" viewBox="0 0 512 384">
  <defs>
    <style>
      .cls-1, .cls-2 {
        stroke-width: 0px;
      }

      .cls-2 {
        fill: #fff;
      }
    </style>
  </defs>
  <g id="Layer_1" data-name="Layer 1">
    <path class="cls-1" d="M80,32C80,14.3,94.3,0,112,0h64c17.7,0,32,14.3,32,32h96c0-17.7,14.3-32,32-32h64c17.7,0,32,14.3,32,32h16c35.3,0,64,28.7,64,64v224c0,35.3-28.7,64-64,64H64c-35.3,0-64-28.7-64-64V96C0,60.7,28.7,32,64,32h16ZM384,128c0-8.8-7.2-16-16-16s-16,7.2-16,16v32h-32c-8.8,0-16,7.2-16,16s7.2,16,16,16h32v32c0,8.8,7.2,16,16,16s16-7.2,16-16v-32h32c8.8,0,16-7.2,16-16s-7.2-16-16-16h-32v-32ZM80,176c0,8.8,7.2,16,16,16h96c8.8,0,16-7.2,16-16s-7.2-16-16-16h-96c-8.8,0-16,7.2-16,16Z"/>
  </g>
  <g id="Layer_2" data-name="Layer 2">
    <rect class="cls-1" x="34" y="71.32" width="417" height="220"/>
    <rect class="cls-2" x="120.59" y="169.77" width="277.35" height="82.54" rx="21.88" ry="21.88"/>
    <rect class="cls-2" x="113.61" y="165.34" width="274.12" height="83.51" rx="21.88" ry="21.88" transform="translate(43.57 457.76) rotate(-90)"/>
  </g>
</svg>