<?xml version="1.0" encoding="UTF-8"?>
<svg id="Layer_1" data-name="Layer 1" xmlns="http://www.w3.org/2000/svg" viewBox="0 0 498.5 518">
  <defs>
    <style>
      .cls-1, .cls-2 {
        stroke-width: 0px;
      }

      .cls-2 {
        fill: #fff;
      }
    </style>
  </defs>
  <g>
    <path class="cls-2" d="M498.5,518H24.5V44h474v474ZM123.45,301.38c0,2.05,0,3.84,0,5.63,0,17.16-.03,34.33,0,51.49.03,13.49,8.01,21.5,21.4,21.55,7.83.03,15.68-.21,23.49.15,2.04.1,4.73,1.51,5.87,3.18,10.45,15.25,20.65,30.68,30.87,46.09,4.28,6.45,10.04,9.83,17.95,9.81,52.16-.07,104.32,0,156.48-.06,12.38-.01,20.69-8.29,20.7-20.75.06-58.49.04-116.99.02-175.48,0-6.09-2.02-11.31-6.46-15.7-12.67-12.54-25.27-25.15-37.77-37.86-4.74-4.83-10.24-7.13-17-6.91-5.79.19-11.58.04-17.53.04v-19.04c.49-.33.62-.51.76-.51,12.66-.07,25.32-.03,37.98-.23,11.61-.18,20.16-8.75,20.12-19.85-.04-11.07-8.75-19.69-20.26-19.71-39.16-.06-78.32-.06-117.49,0-11.62.02-20.15,8.42-20.24,19.63-.09,11.19,8.36,19.77,19.93,19.94,11.16.16,22.33.04,33.5.04,1.77,0,3.54,0,5.39,0v19.74c-2.32,0-4.3,0-6.27,0-43.49,0-86.99-.03-130.48.03-12.83.02-20.92,8.15-20.96,20.94-.06,17.33-.02,34.66-.02,51.99,0,1.78,0,3.57,0,5.45h-19.04c-.27-.7-.49-1.01-.49-1.31-.05-12.16-.04-24.33-.12-36.49-.08-12.15-8.75-21.25-20-21.08-11.1.16-19.51,9.12-19.53,21.03-.05,38.83-.05,77.66,0,116.49.02,11.94,8.43,20.65,19.72,20.69,11.24.04,19.69-8.7,19.79-20.63.09-11,.02-22,.02-33,0-1.76,0-3.52,0-5.32h19.65ZM419.66,341.01c0,26-.09,52,.04,77.99.06,11.71,8.54,20.19,19.7,20.22,11.28.03,19.98-8.34,20.01-19.88.1-52.49.06-104.99.02-157.48,0-5.54-1.86-10.51-5.96-14.37-6.17-5.81-13.4-7.19-21.28-4.25-7.77,2.9-12.48,10.18-12.5,19.29-.07,26.16-.02,52.33-.03,78.49Z"/>
    <path class="cls-1" d="M123.45,301.38h-19.65c0,1.8,0,3.56,0,5.32,0,11,.07,22-.02,33-.1,11.94-8.55,20.68-19.79,20.63-11.29-.04-19.71-8.76-19.72-20.69-.05-38.83-.05-77.66,0-116.49.01-11.92,8.43-20.87,19.53-21.03,11.25-.16,19.92,8.93,20,21.08.08,12.16.07,24.33.12,36.49,0,.3.22.61.49,1.31h19.04c0-1.88,0-3.67,0-5.45,0-17.33-.04-34.66.02-51.99.04-12.78,8.13-20.92,20.96-20.94,43.49-.06,86.99-.03,130.48-.03,1.97,0,3.95,0,6.27,0v-19.74c-1.85,0-3.62,0-5.39,0-11.17,0-22.33.12-33.5-.04-11.58-.16-20.03-8.75-19.93-19.94.09-11.2,8.62-19.61,20.24-19.63,39.16-.06,78.32-.06,117.49,0,11.5.02,20.21,8.64,20.26,19.71.04,11.1-8.52,19.67-20.12,19.85-12.66.2-25.32.15-37.98.23-.14,0-.27.17-.76.51v19.04c5.95,0,11.74.15,17.53-.04,6.76-.23,12.25,2.08,17,6.91,12.5,12.71,25.1,25.32,37.77,37.86,4.43,4.39,6.45,9.61,6.46,15.7.01,58.49.04,116.99-.02,175.48-.01,12.45-8.32,20.73-20.7,20.75-52.16.05-104.32-.01-156.48.06-7.91.01-13.67-3.36-17.95-9.81-10.22-15.41-20.42-30.83-30.87-46.09-1.14-1.67-3.83-3.08-5.87-3.18-7.82-.37-15.66-.12-23.49-.15-13.39-.05-21.37-8.05-21.4-21.55-.04-17.16,0-34.33,0-51.49,0-1.79,0-3.58,0-5.63ZM163.64,222.28v118.25c6.24,0,12.06.04,17.88,0,7.96-.06,14.04,3.14,18.47,9.87,9.88,15.03,20.02,29.89,29.82,44.97,2.14,3.3,4.42,4.58,8.4,4.56,38.99-.16,77.99-.1,116.98-.11,1.62,0,3.23-.15,5.02-.24.11-1.34.26-2.31.26-3.27.01-47.66.04-95.32-.1-142.98,0-2.01-1.22-4.45-2.65-5.95-7.02-7.35-14.39-14.36-21.43-21.68-2.48-2.58-4.99-3.72-8.68-3.71-52.99.13-105.98.08-158.98.09-1.62,0-3.24.14-4.98.21Z"/>
    <path class="cls-1" d="M419.66,341.01c0-26.16-.04-52.33.02-78.49.02-9.11,4.73-16.39,12.5-19.29,7.88-2.94,15.11-1.56,21.28,4.25,4.1,3.86,5.95,8.84,5.96,14.37.04,52.49.08,104.99-.02,157.48-.02,11.54-8.73,19.91-20.01,19.88-11.16-.03-19.64-8.51-19.7-20.22-.13-26-.04-51.99-.04-77.99Z"/>
    <path class="cls-2" d="M163.64,222.28c1.74-.08,3.36-.21,4.98-.21,52.99,0,105.98.03,158.98-.09,3.68,0,6.2,1.13,8.68,3.71,7.05,7.32,14.42,14.33,21.43,21.68,1.43,1.5,2.65,3.94,2.65,5.95.15,47.66.11,95.32.1,142.98,0,.97-.15,1.93-.26,3.27-1.79.09-3.4.24-5.02.24-38.99.02-77.99-.05-116.98.11-3.98.02-6.26-1.27-8.4-4.56-9.8-15.08-19.95-29.94-29.82-44.97-4.42-6.73-10.5-9.93-18.47-9.87-5.82.05-11.64,0-17.88,0v-118.25ZM222.46,281.86c.25-11.12-8.4-20.19-19.51-20.44-10.82-.25-20.23,8.92-20.33,19.81-.1,10.62,8.93,19.73,19.69,19.88,10.96.15,19.9-8.4,20.15-19.24ZM281.66,281.28c-.04-11.18-9.01-20.07-20.02-19.85-10.8.22-19.83,9.31-19.74,19.87.09,11.02,9.22,19.95,20.23,19.81,11-.15,19.57-8.85,19.53-19.82ZM340.97,281.23c-.03-10.88-8.77-19.7-19.64-19.83-10.98-.13-20.04,8.89-20.04,19.94,0,11.04,9.06,19.91,20.17,19.75,10.96-.15,19.54-8.9,19.51-19.87Z"/>
    <path class="cls-1" d="M222.46,281.86c-.25,10.85-9.19,19.39-20.15,19.24-10.76-.14-19.79-9.26-19.69-19.88.1-10.9,9.51-20.06,20.33-19.81,11.11.26,19.76,9.32,19.51,20.44Z"/>
    <path class="cls-1" d="M281.66,281.28c.04,10.97-8.53,19.67-19.53,19.82-11.02.15-20.14-8.78-20.23-19.81-.09-10.56,8.94-19.65,19.74-19.87,11.01-.22,19.98,8.67,20.02,19.85Z"/>
    <path class="cls-1" d="M340.97,281.23c.03,10.97-8.55,19.72-19.51,19.87-11.11.15-20.17-8.72-20.17-19.75,0-11.05,9.06-20.07,20.04-19.94,10.87.13,19.6,8.94,19.64,19.83Z"/>
  </g>
  <rect class="cls-1" x="56.5" width="58" height="171" rx="22.5" ry="22.5"/>
  <rect class="cls-1" x="56.5" width="58" height="171" rx="22.5" ry="22.5" transform="translate(171 0) rotate(90)"/>
</svg>